<svg width="23" height="23" viewBox="0 0 23 23" fill="none" xmlns="http://www.w3.org/2000/svg">
<path d="M18.6381 2.44437L19.8843 2.44437L18.9837 3.3057L0.720062 20.7738C0.576361 20.9112 0.5 21.0928 0.5 21.2771C0.5 21.4615 0.576361 21.6431 0.720062 21.7805C0.864517 21.9187 1.065 22 1.27845 22C1.4919 22 1.69238 21.9187 1.83684 21.7805L20.0989 4.31093L20.9445 3.502L20.9445 4.67223L20.9445 17.6106C20.9445 17.7948 21.0208 17.9762 21.1644 18.1135C21.3087 18.2515 21.509 18.3328 21.7223 18.3328C21.9355 18.3328 22.1358 18.2515 22.2801 18.1135C22.4237 17.9762 22.5 17.7948 22.5 17.6106L22.5 1.72218C22.5 1.538 22.4237 1.35661 22.2801 1.21929C22.1358 1.08124 21.9355 1 21.7223 1L5.11167 1C4.8984 1 4.6981 1.08124 4.55378 1.21929C4.41021 1.35661 4.33393 1.538 4.33393 1.72218C4.33393 1.90637 4.41021 2.08775 4.55378 2.22508C4.6981 2.36312 4.8984 2.44437 5.11167 2.44437L18.6381 2.44437Z" fill="#4189CC" stroke="black"/>
</svg>
