<svg width="220" height="220" viewBox="0 0 220 220" fill="none" xmlns="http://www.w3.org/2000/svg">
<path d="M43.7175 219.998C53.3052 219.998 66.7731 216.531 86.9407 205.266C111.465 191.516 130.434 178.821 154.826 154.498C178.343 131 189.787 115.787 205.804 86.646C223.899 53.7439 220.814 36.4972 217.366 29.1262C213.26 20.3162 207.199 15.047 199.365 9.81699C194.915 6.90213 190.206 4.40344 185.298 2.35261C184.807 2.14145 184.35 1.94011 183.942 1.75841C181.511 0.663309 177.827 -0.991622 173.161 0.776257C170.047 1.94502 167.267 4.33657 162.915 8.63349C153.991 17.4336 141.795 37.0325 137.296 46.6576C134.275 53.1447 132.276 57.4269 132.271 62.2297C132.271 67.8525 135.1 72.1887 138.533 76.8687C139.177 77.7477 139.815 78.5875 140.434 79.4026C144.172 84.3134 144.992 85.7326 144.452 88.2666C143.357 93.3591 135.188 108.519 121.765 121.91C108.341 135.302 93.6157 142.953 88.5026 144.043C85.8601 144.608 84.4111 143.753 79.3422 139.884C78.6153 139.329 77.8687 138.754 77.0878 138.18C71.8519 134.285 67.7162 131.531 62.2249 131.531H62.1954C57.4163 131.531 53.3249 133.603 46.5467 137.021C37.7056 141.48 17.5135 153.516 8.6577 162.449C4.35013 166.79 1.9483 169.56 0.774399 172.668C-0.99382 177.348 0.671249 181.016 1.75674 183.472C1.93848 183.879 2.13985 184.326 2.35106 184.822C4.41853 189.721 6.93246 194.419 9.86107 198.857C15.0822 206.665 20.3722 212.71 29.2034 216.821C33.7382 218.966 38.7012 220.052 43.7175 219.998Z" fill="#4189CC"/>
</svg>
