<svg width="117" height="67" viewBox="0 0 117 67" fill="none" xmlns="http://www.w3.org/2000/svg">
<path d="M9.12932 61.1665C13.3244 63.7774 20.1615 65.928 32.0537 66.4909C46.5289 67.1529 58.2859 66.7642 75.5822 62.7639C92.2714 58.8865 101.422 55.3462 116.366 46.9575C133.243 37.4886 136.59 29.1022 137.089 24.938C137.691 19.965 136.474 16.0088 134.471 11.587C133.317 9.0998 131.937 6.72413 130.348 4.49011C130.191 4.26396 130.046 4.05146 129.917 3.86094C129.151 2.71968 127.99 0.992375 125.467 0.495227C123.786 0.158605 121.918 0.447972 118.844 1.14303C112.543 2.56319 101.869 7.8176 97.2793 10.8039C94.191 12.8198 92.1502 14.1491 90.8401 16.2492C89.3089 18.7095 89.366 21.3773 89.5938 24.36C89.6359 24.9198 89.6866 25.4611 89.7354 25.9864C90.0336 29.153 90.0061 29.9973 89.0796 30.959C87.2135 32.8889 79.5112 37.2977 69.9907 39.5017C60.4703 41.7057 51.9436 41.0434 49.4095 40.128C48.0994 39.6555 47.6981 38.887 46.534 35.8134C46.367 35.3727 46.1968 34.918 46.0116 34.4539C44.7811 31.3241 43.7217 28.9924 41.319 27.497L41.3061 27.489C39.215 26.1875 36.8604 25.9801 32.9638 25.6298C27.8811 25.1732 15.7682 24.941 9.46068 26.4379C6.39369 27.1643 4.58852 27.7221 3.22835 28.7626C1.1802 30.3288 0.909787 32.3874 0.716092 33.7573C0.684613 33.9852 0.651027 34.2355 0.608374 34.5101C0.178978 37.2166 -0.000448315 39.9569 0.0723787 42.6963C0.230593 47.5346 0.898996 51.6203 3.64383 55.8237C5.04393 57.9972 6.91966 59.8241 9.12932 61.1665Z" fill="#4189CC"/>
</svg>
