<svg width="120" height="132" viewBox="0 0 120 132" fill="none" xmlns="http://www.w3.org/2000/svg">
<path d="M39.9217 178.731C46.3299 176.53 54.5355 171.121 65.4285 158.961C78.663 144.14 88.4269 131.301 99.1454 109.444C109.469 88.3389 113.625 75.543 117.64 52.3889C122.18 26.2436 116.159 15.4246 112.162 11.2896C107.395 6.34398 102.134 4.2137 95.6972 2.51676C92.0539 1.59016 88.3328 1.00123 84.5813 0.757428C84.2046 0.72906 83.853 0.699362 83.5388 0.671516C81.6624 0.497778 78.8203 0.237421 76.1075 2.49032C74.2945 3.98643 72.9854 6.22315 71.0633 10.0942C67.1188 18.025 63.4671 33.9244 62.6698 41.3905C62.1402 46.4199 61.7873 49.7409 62.8866 52.9521C64.1776 56.7102 67.064 58.9589 70.4332 61.2986C71.0651 61.7384 71.6847 62.1531 72.2855 62.5558C75.9112 64.9799 76.7853 65.7402 77.0059 67.5578C77.443 71.213 75.4641 83.2206 69.5666 95.2532C63.6691 107.286 55.5836 115.78 52.4165 117.683C50.7799 118.667 49.6153 118.428 45.339 117.006C44.7257 116.802 44.0948 116.589 43.4409 116.385C39.0473 114.984 35.6506 114.092 31.9804 115.353L31.9607 115.359C28.7665 116.457 26.5076 118.781 22.762 122.622C17.8766 127.632 7.14409 140.313 3.27593 148.316C1.39353 152.207 0.4241 154.609 0.353176 156.956C0.245821 160.49 2.20092 162.56 3.49016 163.952C3.7052 164.182 3.9424 164.435 4.19744 164.718C6.70398 167.517 9.46287 170.08 12.4392 172.374C17.7216 176.394 22.6451 179.22 29.4914 179.94C33.0147 180.332 36.5813 179.919 39.9217 178.731Z" fill="#4189CC"/>
</svg>
